<svg xmlns="http://www.w3.org/2000/svg" xmlns:xlink="http://www.w3.org/1999/xlink" width="100%" height="100%" viewBox="0 0  1380 820" preserveAspectRatio="xMinYMin meet" ><defs id="svgEditorDefs"><marker id="arrow15-12-left" markerHeight="12" markerUnits="strokeWidth" markerWidth="15" orient="auto" refX="3" refY="0" viewBox="0 -5 20 20"><path d="M15,-5L0,0,15,5Z" fill="black"/></marker><marker id="circle4" markerHeight="4" markerUnits="strokeWidth" markerWidth="4" orient="auto" refX="0" refY="0" viewBox="-5 -5 10 10"><circle cx="0" cy="0" r="5" style="fill:black;stroke:none;"/></marker><marker id="arrow8-6-right" markerHeight="6" markerUnits="strokeWidth" markerWidth="8" orient="auto" refX="-3" refY="0" viewBox="-15 -5 20 20"><path d="M-15,-5l15,5,-15,5Z" fill="black"/></marker></defs><rect id="svgEditorBackground" x="0" y="0" width="1380" height="820" style="fill: none; stroke: none;"/><rect x="287.637000" y="318.204000" style="fill:white;stroke:black;stroke-width:1px" id="e1_rectangle" width="512.126000" height="274.994000" transform="matrix(1.6136 0 0 1.6136 -184.021 -324.636)"/><path d="M542.704358,454.704301h-255.067" style="fill:none;stroke:black;stroke-width:1px" id="e9_pathH" transform="matrix(1.6136 0 0 1.6136 -184.021 -324.636)"/><path d="M541.708003,454.704656h257.06" style="fill:none;stroke:black;stroke-width:1px" id="e11_pathH" transform="matrix(1.6136 0 0 1.6136 -184.021 -324.636)"/><path d="M542.704003,453.707656v-135.504" style="fill:none;stroke:black;stroke-width:1px" id="e13_pathV" transform="matrix(1.6136 0 0 1.6136 -184.021 -324.636)"/><path d="M542.704003,455.700656v137.497" style="fill:none;stroke:black;stroke-width:1px" id="e17_pathV" transform="matrix(1.6136 0 0 1.6136 -184.021 -324.636)"/><path d="M542.704003,319.200366l-8.967,12.953l17.934,0Z" style="fill:black;stroke:black;stroke-width:1px" id="e19_pathH" transform="matrix(1.6136 0 0 1.6136 -184.021 -324.636)"/><path d="M798.767003,454.704011l-13.949,-8.967l0,18.931Z" style="fill:black;stroke:black;stroke-width:1px" id="e21_pathH" transform="matrix(1.6136 0 0 1.6136 -184.021 -324.636)"/><text style="fill:black;font-family:Arial;font-size:20px" x="515.803" y="338.131" id="e22_texte" xml:space="preserve" transform="matrix(1.6136 0 0 1.6136 -184.021 -324.636)">y</text><text style="fill:black;font-family:Arial;font-size:20px" x="555.657" y="340.124" id="e23_texte" transform="matrix(1.6136 0 0 1.6136 -184.021 -324.636)">inf</text><text style="fill:black;font-family:Arial;font-size:20px" x="772.862" y="486.588" id="e24_texte" transform="matrix(1.6136 0 0 1.6136 -184.021 -324.636)">inf</text><text style="fill:black;font-family:Arial;font-size:20px" x="781.829" y="441.752" id="e25_texte" transform="matrix(1.6136 0 0 1.6136 -184.021 -324.636)">x</text><text style="fill:black;font-family:Arial;font-size:20px" x="293.615" y="479.614" id="e26_texte" transform="matrix(1.6136 0 0 1.6136 -184.021 -324.636)">-inf</text><text style="fill:black;font-family:Arial;font-size:20px" x="547.685" y="586.224" id="e27_texte" transform="matrix(1.6136 0 0 1.6136 -184.021 -324.636)">-inf</text><text style="fill:black;font-family:Arial;font-size:20px" x="714.387" y="374.63" id="e28_texte"></text><text style="fill:black;font-family:Arial;font-size:20px" x="746.27" y="330.789" id="e31_texte"></text><text style="fill:black;font-family:Arial;font-size:20px" x="846.902" y="264.034" id="e33_texte"></text><text style="fill:black;font-family:Arial;font-size:20px" x="635.674" y="430.425" id="e34_texte"></text><text style="fill:black;font-family:Arial;font-size:20px" x="538.032" y="494.191" id="e35_texte"/><line id="e37_line" x1="349.72" y1="631.686" x2="1032.27" y2="189.316" style="stroke:black;fill:none;stroke-width:1px;marker-start:url(#circle4);marker-end:url(#arrow8-6-right)"/><text style="fill:black;font-family:Arial;font-size:20px" x="754.241" y="344.739" id="e38_texte"></text><text style="fill:black;font-family:Arial;font-size:20px" x="717.376" y="375.626" id="e40_texte"></text><text style="fill:black;font-family:Arial;font-size:20px" x="642.65" y="665.565" id="e41_texte">Lin({u},{R})</text></svg>